<mxfile host="app.diagrams.net" agent="Mozilla/5.0 (Windows NT 10.0; Win64; x64) AppleWebKit/537.36 (KHTML, like Gecko) Chrome/130.0.0.0 Safari/537.36" version="24.8.6">
  <diagram name="Trang-1" id="UxQE7mg5AULh3jVeTs5N">
    <mxGraphModel dx="794" dy="492" grid="1" gridSize="10" guides="1" tooltips="1" connect="1" arrows="1" fold="1" page="1" pageScale="1" pageWidth="827" pageHeight="1169" math="0" shadow="0">
      <root>
        <mxCell id="0" />
        <mxCell id="1" parent="0" />
        <mxCell id="6Wu9PurFi7T7twx0X2QR-2" style="edgeStyle=orthogonalEdgeStyle;rounded=0;orthogonalLoop=1;jettySize=auto;html=1;" edge="1" parent="1" source="6Wu9PurFi7T7twx0X2QR-1">
          <mxGeometry relative="1" as="geometry">
            <mxPoint x="400" y="200" as="targetPoint" />
          </mxGeometry>
        </mxCell>
        <mxCell id="6Wu9PurFi7T7twx0X2QR-1" value="start" style="ellipse;whiteSpace=wrap;html=1;" vertex="1" parent="1">
          <mxGeometry x="340" y="40" width="120" height="80" as="geometry" />
        </mxCell>
        <mxCell id="6Wu9PurFi7T7twx0X2QR-4" style="edgeStyle=orthogonalEdgeStyle;rounded=0;orthogonalLoop=1;jettySize=auto;html=1;" edge="1" parent="1" source="6Wu9PurFi7T7twx0X2QR-3" target="6Wu9PurFi7T7twx0X2QR-5">
          <mxGeometry relative="1" as="geometry">
            <mxPoint x="400" y="360" as="targetPoint" />
          </mxGeometry>
        </mxCell>
        <mxCell id="6Wu9PurFi7T7twx0X2QR-3" value="Nhập điểm số&amp;nbsp;" style="rounded=0;whiteSpace=wrap;html=1;" vertex="1" parent="1">
          <mxGeometry x="340" y="200" width="120" height="60" as="geometry" />
        </mxCell>
        <mxCell id="6Wu9PurFi7T7twx0X2QR-6" style="edgeStyle=orthogonalEdgeStyle;rounded=0;orthogonalLoop=1;jettySize=auto;html=1;" edge="1" parent="1" source="6Wu9PurFi7T7twx0X2QR-5">
          <mxGeometry relative="1" as="geometry">
            <mxPoint x="360" y="560" as="targetPoint" />
            <Array as="points">
              <mxPoint x="400" y="520" />
              <mxPoint x="361" y="520" />
            </Array>
          </mxGeometry>
        </mxCell>
        <mxCell id="6Wu9PurFi7T7twx0X2QR-10" style="edgeStyle=orthogonalEdgeStyle;rounded=0;orthogonalLoop=1;jettySize=auto;html=1;" edge="1" parent="1" source="6Wu9PurFi7T7twx0X2QR-5">
          <mxGeometry relative="1" as="geometry">
            <mxPoint x="470" y="560" as="targetPoint" />
          </mxGeometry>
        </mxCell>
        <mxCell id="6Wu9PurFi7T7twx0X2QR-5" value="Kiểm tra điểm &amp;gt;= &lt;span class=&quot;hljs-number&quot;&gt;5&lt;/span&gt;" style="rhombus;whiteSpace=wrap;html=1;" vertex="1" parent="1">
          <mxGeometry x="320" y="320" width="160" height="160" as="geometry" />
        </mxCell>
        <mxCell id="6Wu9PurFi7T7twx0X2QR-12" style="edgeStyle=orthogonalEdgeStyle;rounded=0;orthogonalLoop=1;jettySize=auto;html=1;" edge="1" parent="1" source="6Wu9PurFi7T7twx0X2QR-8">
          <mxGeometry relative="1" as="geometry">
            <mxPoint x="470" y="720" as="targetPoint" />
          </mxGeometry>
        </mxCell>
        <mxCell id="6Wu9PurFi7T7twx0X2QR-8" value="Điểm &amp;lt; &lt;span class=&quot;hljs-number&quot;&gt;5&lt;/span&gt;?" style="rhombus;whiteSpace=wrap;html=1;" vertex="1" parent="1">
          <mxGeometry x="430" y="560" width="80" height="80" as="geometry" />
        </mxCell>
        <mxCell id="6Wu9PurFi7T7twx0X2QR-11" style="edgeStyle=orthogonalEdgeStyle;rounded=0;orthogonalLoop=1;jettySize=auto;html=1;" edge="1" parent="1" source="6Wu9PurFi7T7twx0X2QR-9">
          <mxGeometry relative="1" as="geometry">
            <mxPoint x="360" y="720" as="targetPoint" />
          </mxGeometry>
        </mxCell>
        <mxCell id="6Wu9PurFi7T7twx0X2QR-9" value="Điểm &amp;gt;= &lt;span class=&quot;hljs-number&quot;&gt;5&lt;/span&gt;?&amp;nbsp;" style="rhombus;whiteSpace=wrap;html=1;" vertex="1" parent="1">
          <mxGeometry x="320" y="560" width="80" height="80" as="geometry" />
        </mxCell>
        <mxCell id="6Wu9PurFi7T7twx0X2QR-16" value="&amp;nbsp;Kết thúc&amp;nbsp;" style="ellipse;whiteSpace=wrap;html=1;" vertex="1" parent="1">
          <mxGeometry x="354" y="900" width="120" height="80" as="geometry" />
        </mxCell>
        <mxCell id="6Wu9PurFi7T7twx0X2QR-22" style="edgeStyle=orthogonalEdgeStyle;rounded=0;orthogonalLoop=1;jettySize=auto;html=1;entryX=0.822;entryY=0.058;entryDx=0;entryDy=0;entryPerimeter=0;" edge="1" parent="1" target="6Wu9PurFi7T7twx0X2QR-16">
          <mxGeometry relative="1" as="geometry">
            <mxPoint x="500" y="780" as="sourcePoint" />
          </mxGeometry>
        </mxCell>
        <mxCell id="6Wu9PurFi7T7twx0X2QR-23" value="In&amp;nbsp;&lt;span class=&quot;hljs-string&quot;&gt;&quot;Đạt&quot;&lt;/span&gt;" style="shape=parallelogram;perimeter=parallelogramPerimeter;whiteSpace=wrap;html=1;fixedSize=1;" vertex="1" parent="1">
          <mxGeometry x="294" y="720" width="120" height="60" as="geometry" />
        </mxCell>
        <mxCell id="6Wu9PurFi7T7twx0X2QR-24" style="edgeStyle=orthogonalEdgeStyle;rounded=0;orthogonalLoop=1;jettySize=auto;html=1;entryX=0.267;entryY=0.083;entryDx=0;entryDy=0;entryPerimeter=0;" edge="1" parent="1" source="6Wu9PurFi7T7twx0X2QR-23" target="6Wu9PurFi7T7twx0X2QR-16">
          <mxGeometry relative="1" as="geometry" />
        </mxCell>
        <mxCell id="6Wu9PurFi7T7twx0X2QR-25" value="In&amp;nbsp;&lt;span class=&quot;hljs-string&quot;&gt;&quot;Không đạt&quot;&lt;/span&gt;" style="shape=parallelogram;perimeter=parallelogramPerimeter;whiteSpace=wrap;html=1;fixedSize=1;" vertex="1" parent="1">
          <mxGeometry x="440" y="720" width="120" height="60" as="geometry" />
        </mxCell>
      </root>
    </mxGraphModel>
  </diagram>
</mxfile>
